<svg width="14" height="14" viewBox="0 0 14 14" fill="none" xmlns="http://www.w3.org/2000/svg">
<path d="M7 0C7.12578 0 7.25156 0.0273438 7.36641 0.0792969L12.5152 2.26406C13.1168 2.51836 13.5652 3.11172 13.5625 3.82812C13.5488 6.54063 12.4332 11.5035 7.72188 13.7594C7.26524 13.9781 6.73477 13.9781 6.27813 13.7594C1.5668 11.5035 0.451173 6.54063 0.437501 3.82812C0.434767 3.11172 0.883204 2.51836 1.48477 2.26406L6.63633 0.0792969C6.74844 0.0273438 6.87422 0 7 0ZM7 1.82656V12.1625C10.7734 10.3359 11.7879 6.2918 11.8125 3.86641L7 1.82656Z" fill="white"/>
</svg>
